<svg xmlns="http://www.w3.org/2000/svg" width="190mm" height="140mm" viewBox="0 0 190 140">
<rect x="0" y="0" width="190" height="140" rx="10" fill="none" stroke="#000000" stroke-width="0.2"/>
<rect x="0" y="50" width="8" height="10" rx="0" fill="none" stroke="#000000" stroke-width="0.2"/>
<rect x="182" y="50" width="8" height="10" rx="0" fill="none" stroke="#000000" stroke-width="0.2"/>
<rect x="0" y="75" width="8" height="10" rx="0" fill="none" stroke="#000000" stroke-width="0.2"/>
<rect x="182" y="75" width="8" height="10" rx="0" fill="none" stroke="#000000" stroke-width="0.2"/>
<text x="2" y="45" font-family="sans-serif" font-size="3.5" fill="#ff0000">MOTOR ESQUERRE</text>
<text x="152" y="45" font-family="sans-serif" font-size="3.5" fill="#ff0000">MOTOR DRET</text>
<circle cx="87.0" cy="14" r="1.6" fill="none" stroke="#000000" stroke-width="0.2"/>
<circle cx="103.0" cy="14" r="1.6" fill="none" stroke="#000000" stroke-width="0.2"/>
<text x="75.0" y="26" font-family="sans-serif" font-size="3.5" fill="#ff0000">RODA BOJA</text>
<circle cx="75.0" cy="50.0" r="1.6" fill="none" stroke="#000000" stroke-width="0.2"/>
<circle cx="115.0" cy="50.0" r="1.6" fill="none" stroke="#000000" stroke-width="0.2"/>
<circle cx="75.0" cy="80.0" r="1.6" fill="none" stroke="#000000" stroke-width="0.2"/>
<circle cx="115.0" cy="80.0" r="1.6" fill="none" stroke="#000000" stroke-width="0.2"/>
<text x="73.0" y="45.0" font-family="sans-serif" font-size="3.5" fill="#ff0000">MICRO:BIT + MICRO:SHIELD</text>
<rect x="65.0" y="87.0" width="60" height="30" rx="3" fill="none" stroke="#ff0000" stroke-width="0.2"/>
<text x="68.0" y="95.0" font-family="sans-serif" font-size="3.5" fill="#ff0000">PORTAPILES 4xAA</text>
<rect x="90.0" y="126" width="10" height="6" rx="0" fill="none" stroke="#000000" stroke-width="0.2"/>
<rect x="60.0" y="110" width="70" height="10" rx="2" fill="none" stroke="#ff0000" stroke-width="0.2"/>
<text x="63.0" y="118" font-family="sans-serif" font-size="4" fill="#ff0000">NOM (grava aqui)</text>
</svg>
